# xmcd
# 
# Track frame offsets:
#     150
#     18282
#     36848
#     53924
#     68657
#     86384
#     103617
#     118464
#     137420
#     153484
#     169560
#     186416
#     203247
#     223928
#     243857
#     260734
#     277803
#     292119
#     310333
#     325996
#     342344
# 
# Disc length: 4757
# 
# Revision: 1
# Processed by: cddbd v1.5.2PL0 Copyright (c) Steve Scherf et al.
# Submitted via: BonkEnc v1.0
# 
DISCID=3d129315
DTITLE=Varios - Especial Sertanejo 2004
DYEAR=2004
DGENRE=Country
TTITLE0=Nosso Amor e Ouro - Eduardo Costa
TTITLE1=Coracao de Pedra - Bruno e Marrone
TTITLE2=Um Degrau na Escada - Chico Rey e Parana
TTITLE3=Teimosia - Gino e Geno
TTITLE4=Desatino - Ronaldo Viola e Joao Carvalho
TTITLE5=Acabou Amor - Eduardo Costa
TTITLE6=Madrugada Triste - Juliano Cezar e Rio Negro e Solimoes
TTITLE7=Noite Sem Sono - Bruno e Marrone
TTITLE8=Porta Retrato - Hedson e Hudson
TTITLE9=Pra Nunca Mais Dizer Seu Nome - Juliano Cezar e Juliano (part. Bruno e Marrone)
TTITLE10=Sem Palavras - Marlon e Maicon
TTITLE11=So Um Grande Amor - Rene
TTITLE12=Coracao Aberto - Eduardo Costa
TTITLE13=Dono Dos Meus Olhos - Yza Mariana
TTITLE14=Voce, O Amor e Eu - Cleiton e Camargo
TTITLE15=Florence - Rio Negro e Solimoes
TTITLE16=Cara de Boi - Gino e Geno
TTITLE17=Trovejou Mas Nao Choveu - Marcelinho de Lima (part. Gino e Geno)
TTITLE18=O Bicho Vai Pegar - Edson e Hudson
TTITLE19=Riacho Sereno - Rick e Renner
TTITLE20=O Trem Ta Feio - Teodoro e Sampaio
EXTD=YEAR: 2004
EXTT0=
EXTT1=
EXTT2=
EXTT3=
EXTT4=
EXTT5=
EXTT6=
EXTT7=
EXTT8=
EXTT9=
EXTT10=
EXTT11=
EXTT12=
EXTT13=
EXTT14=
EXTT15=
EXTT16=
EXTT17=
EXTT18=
EXTT19=
EXTT20=
PLAYORDER=
